<svg width="464" height="87" viewBox="0 0 464 87" fill="none" xmlns="http://www.w3.org/2000/svg">
<path d="M165.48 66.24C169.11 66.24 171.21 63.66 171.21 60.3C171.21 56.94 169.11 54.36 165.48 54.36C161.835 54.36 159.735 56.94 159.735 60.3C159.735 63.66 161.835 66.24 165.48 66.24ZM165.465 64.245C163.305 64.245 162.135 62.37 162.135 60.3C162.135 58.23 163.305 56.355 165.465 56.355C167.625 56.355 168.795 58.23 168.795 60.3C168.795 62.37 167.625 64.245 165.465 64.245ZM177.305 57.885C176.42 57.885 175.49 58.35 174.92 59.1V58.125H172.745V69.6H174.965V65.1C175.475 65.79 176.405 66.24 177.29 66.24C179.345 66.24 180.725 64.56 180.725 62.04C180.725 59.55 179.36 57.885 177.305 57.885ZM176.765 64.47C175.685 64.47 174.965 63.66 174.965 62.415V61.785C174.965 60.495 175.685 59.64 176.75 59.64C177.845 59.64 178.55 60.615 178.55 62.07C178.55 63.51 177.845 64.47 176.765 64.47ZM185.687 66.24C187.937 66.24 189.332 64.755 189.467 63.405H187.292C187.157 63.96 186.602 64.485 185.762 64.485C184.757 64.485 184.157 63.78 184.037 62.655H189.452V61.71C189.452 59.28 187.787 57.885 185.642 57.885C183.257 57.885 181.832 59.595 181.832 62.055C181.832 64.485 183.227 66.24 185.687 66.24ZM184.052 61.29C184.052 60.21 184.757 59.64 185.687 59.64C186.572 59.64 187.262 60.225 187.262 61.29H184.052ZM190.806 66H193.026V62.085C193.026 60.585 193.806 59.64 194.811 59.64C195.711 59.64 196.296 60.345 196.296 61.995V66H198.516V61.2C198.516 59.145 197.451 57.885 195.621 57.885C194.631 57.885 193.656 58.26 193.026 59.31V58.125H190.806V66ZM206.688 63.78V54.6H204.468V66H212.388V63.78H206.688ZM216.829 66.24C219.079 66.24 220.474 64.755 220.609 63.405H218.434C218.299 63.96 217.744 64.485 216.904 64.485C215.899 64.485 215.299 63.78 215.179 62.655H220.594V61.71C220.594 59.28 218.929 57.885 216.784 57.885C214.399 57.885 212.974 59.595 212.974 62.055C212.974 64.485 214.369 66.24 216.829 66.24ZM215.194 61.29C215.194 60.21 215.899 59.64 216.829 59.64C217.714 59.64 218.404 60.225 218.404 61.29H215.194ZM224.081 66.165C225.311 66.165 226.196 65.67 226.646 64.95H226.691V66H228.836V65.055V64.035V61.35C228.836 58.755 227.546 57.885 225.356 57.885C222.626 57.885 221.876 59.235 221.831 60.585H223.961C223.991 60.105 224.291 59.535 225.326 59.535C226.256 59.535 226.601 60.03 226.601 60.84V61.245H226.121C224.171 61.245 223.061 61.515 222.371 62.01C221.756 62.46 221.456 63.075 221.456 63.825C221.456 65.04 222.221 66.165 224.081 66.165ZM224.921 64.665C224.171 64.665 223.691 64.35 223.691 63.705C223.691 62.76 224.831 62.4 226.286 62.4H226.616V63.42C226.616 63.885 226.091 64.665 224.921 64.665ZM235.814 58.125V59.16C235.274 58.32 234.449 57.885 233.399 57.885C231.269 57.885 230.054 59.67 230.054 62.01C230.054 64.5 231.404 66.24 233.489 66.24C234.524 66.24 235.274 65.805 235.814 65.025V65.58C235.784 67.245 235.334 67.92 234.179 67.92C233.294 67.92 232.679 67.5 232.499 66.78H230.354C230.684 68.64 232.064 69.6 234.299 69.6C236.819 69.6 238.034 68.355 238.034 64.95V58.125H235.814ZM235.814 62.325C235.814 63.75 235.034 64.47 234.029 64.47C232.934 64.47 232.184 63.615 232.184 62.04C232.184 60.495 232.919 59.655 234.014 59.655C235.019 59.655 235.814 60.36 235.814 61.695V62.325ZM242.434 66.24C243.514 66.24 244.414 65.85 245.044 64.74V66H247.264V58.125H245.044V62.025C245.044 63.54 244.294 64.485 243.214 64.485C242.464 64.485 241.774 64.02 241.774 62.205V58.125H239.554V62.85C239.554 65.1 240.589 66.24 242.434 66.24ZM252.308 66.24C254.558 66.24 255.953 64.755 256.088 63.405H253.913C253.778 63.96 253.223 64.485 252.383 64.485C251.378 64.485 250.778 63.78 250.658 62.655H256.073V61.71C256.073 59.28 254.408 57.885 252.263 57.885C249.878 57.885 248.453 59.595 248.453 62.055C248.453 64.485 249.848 66.24 252.308 66.24ZM250.673 61.29C250.673 60.21 251.378 59.64 252.308 59.64C253.193 59.64 253.883 60.225 253.883 61.29H250.673ZM261.655 66H263.89V61.53H265.9C268.315 61.53 269.905 60.33 269.905 58.065C269.905 55.77 268.345 54.6 266.065 54.6H261.655V66ZM263.89 59.565V56.55H265.585C266.77 56.55 267.565 57.075 267.565 58.095C267.565 59.16 266.71 59.565 265.585 59.565H263.89ZM271.373 66H273.593V62.895C273.593 61.26 274.463 60.165 276.128 60.165H276.368V57.93C275.738 57.93 275.288 57.99 274.853 58.185C274.283 58.44 273.833 58.995 273.518 59.61V58.125H271.373V66ZM280.715 66.24C283.16 66.24 284.69 64.47 284.69 62.055C284.69 59.61 283.16 57.885 280.715 57.885C278.255 57.885 276.71 59.61 276.71 62.055C276.71 64.47 278.255 66.24 280.715 66.24ZM280.7 64.485C279.62 64.485 278.885 63.615 278.885 62.055C278.885 60.51 279.62 59.64 280.7 59.64C281.78 59.64 282.515 60.51 282.515 62.055C282.515 63.615 281.78 64.485 280.7 64.485ZM289.054 66.15C289.699 66.15 290.014 66.12 290.374 66.075V64.095H289.894C289.039 64.095 288.619 63.885 288.619 62.955V60.09H290.179V58.125H288.619V56.1H286.504V57.075C286.504 57.945 286.264 58.32 285.454 58.32V60.09H286.399V63.6C286.399 65.235 287.074 66.135 289.054 66.15ZM295.099 66.24C297.544 66.24 299.074 64.47 299.074 62.055C299.074 59.61 297.544 57.885 295.099 57.885C292.639 57.885 291.094 59.61 291.094 62.055C291.094 64.47 292.639 66.24 295.099 66.24ZM295.084 64.485C294.004 64.485 293.269 63.615 293.269 62.055C293.269 60.51 294.004 59.64 295.084 59.64C296.164 59.64 296.899 60.51 296.899 62.055C296.899 63.615 296.164 64.485 295.084 64.485ZM304.031 66.24C306.281 66.24 307.676 64.755 307.811 63.03H305.636C305.501 63.915 304.901 64.485 304.076 64.485C303.011 64.485 302.351 63.6 302.351 62.055C302.351 60.51 303.011 59.64 304.076 59.64C304.901 59.64 305.486 60.135 305.621 61.125H307.796C307.661 59.205 306.161 57.885 304.031 57.885C301.586 57.885 300.176 59.595 300.176 62.055C300.176 64.47 301.571 66.24 304.031 66.24ZM312.751 66.24C315.196 66.24 316.726 64.47 316.726 62.055C316.726 59.61 315.196 57.885 312.751 57.885C310.291 57.885 308.746 59.61 308.746 62.055C308.746 64.47 310.291 66.24 312.751 66.24ZM312.736 64.485C311.656 64.485 310.921 63.615 310.921 62.055C310.921 60.51 311.656 59.64 312.736 59.64C313.816 59.64 314.551 60.51 314.551 62.055C314.551 63.615 313.816 64.485 312.736 64.485ZM317.911 66H320.131V54.6H317.911V66Z" fill="black"/>
<path fill-rule="evenodd" clip-rule="evenodd" d="M93.8811 72.6074C99.6184 70.8161 103.142 67.4582 103.712 63.4225C104.278 59.4134 101.26 54.98 95.9754 51.1188C90.7163 47.2761 83.3159 44.0833 75.3769 42.5521C67.4322 41.0197 59.3103 41.0078 53.0392 42.4175C49.9031 43.1225 47.2459 44.1795 45.306 45.5658C43.3678 46.951 42.1635 48.6506 41.8821 50.645C41.6004 52.6407 42.27 54.7452 43.7185 56.8613C45.1676 58.9783 47.3822 61.0846 50.1419 63.0625C55.6603 67.0178 63.3053 70.4222 71.1861 72.3592C80.2863 74.5958 88.1549 74.3952 93.8811 72.6074ZM71.1269 72.6653C89.4109 77.1591 102.833 71.8827 104.019 63.4817C105.205 55.0807 91.3775 45.3203 75.4206 42.2425C59.4637 39.1648 42.7608 42.1848 41.5751 50.5858C40.3894 58.9868 55.3003 68.7755 71.1269 72.6653Z" fill="black"/>
<path fill-rule="evenodd" clip-rule="evenodd" d="M102.15 69.2197C102.716 65.2116 88.7154 59.0079 72.7585 55.9301C56.8016 52.8524 44.3834 54.6213 43.8177 58.6294C45.807 62.4461 54.381 69.5323 71.2121 74.0574C89.407 78.9492 98.4729 73.7137 102.15 69.2197ZM43.979 58.6085C44.1316 57.7062 44.9493 56.8918 46.4034 56.2282C47.8766 55.5559 49.9632 55.0577 52.54 54.7793C57.6915 54.2227 64.7695 54.5482 72.7366 56.0849C80.7057 57.622 88.1828 59.9391 93.5932 62.3697C96.2996 63.5855 98.4809 64.8262 99.9475 66.0068C100.681 66.5973 101.229 67.1674 101.575 67.7059C101.911 68.2272 102.051 68.7088 102.002 69.1486C98.3517 73.5809 89.3508 78.773 71.245 73.9052C62.8426 71.6462 56.5064 68.7492 52.0259 65.9447C47.5777 63.1604 44.9726 60.4762 43.979 58.6085Z" fill="black"/>
<path d="M140.902 50.5601C136.955 69.8258 103.293 82.4756 66.7312 74.7888C35.0832 68.135 1.52767 54.6243 5.26084 31.9979C7.63182 17.6276 39.728 4.81573 80.6041 11.5599C114.172 17.0985 144.59 32.5565 140.902 50.5601Z" fill="white"/>
<path fill-rule="evenodd" clip-rule="evenodd" d="M115.896 72.3379C129.313 67.7492 138.519 59.8568 140.443 50.466C142.221 41.7862 135.8 33.5812 124.483 26.7877C113.209 20.0198 97.2738 14.7856 80.5278 12.0226C60.1524 8.66086 41.9837 10.1769 28.6317 14.309C21.9547 16.3753 16.4987 19.0908 12.5743 22.1629C8.64546 25.2385 6.29018 28.6398 5.72352 32.0742C3.90612 43.0894 11.1361 51.9699 22.9671 58.9796C34.7804 65.9788 51.0229 71.007 66.8277 74.3298C85.0343 78.1576 102.504 76.9178 115.896 72.3379ZM66.7312 74.7888C103.293 82.4756 136.955 69.8258 140.902 50.5601C144.59 32.5565 114.172 17.0985 80.6041 11.5599C39.728 4.81573 7.63182 17.6276 5.26084 31.9979C1.52767 54.6243 35.0832 68.135 66.7312 74.7888Z" fill="black"/>
<path fill-rule="evenodd" clip-rule="evenodd" d="M95.7182 49.3298C102.452 47.5315 106.559 44.1655 107.221 40.1536C107.549 38.1664 106.845 36.0661 105.263 33.9623C103.682 31.8588 101.243 29.779 98.1623 27.8538C92.0034 24.0042 83.3393 20.8071 74.046 19.2738C64.7478 17.7396 55.2407 17.7273 47.8973 19.1394C44.2243 19.8457 41.1107 20.905 38.8374 22.2947C36.5635 23.6847 35.1653 25.3822 34.839 27.3595C34.5125 29.3384 35.2873 31.4374 36.986 33.5603C38.6836 35.6817 41.2779 37.7922 44.5094 39.7735C50.9704 43.7348 59.9187 47.1431 69.1417 49.0822C79.7935 51.3216 89.0087 51.1217 95.7182 49.3298ZM69.0774 49.3881C90.4518 53.8819 106.143 48.6055 107.529 40.2045C108.915 31.8035 92.7509 22.0431 74.0969 18.9653C55.4428 15.8875 35.9167 18.9075 34.5306 27.3086C33.1445 35.7096 50.5756 45.4982 69.0774 49.3881Z" fill="black"/>
<path fill-rule="evenodd" clip-rule="evenodd" d="M105.238 44.5885C105.9 40.5804 89.5329 34.3767 70.8789 31.299C52.2249 28.2212 37.7077 29.9902 37.0464 33.9983C39.3719 37.815 49.3952 44.9011 69.0711 49.4262C90.3415 54.318 100.94 49.0825 105.238 44.5885ZM37.2109 33.9674C37.2985 33.5335 37.5683 33.117 38.0266 32.7239C38.5054 32.3134 39.1821 31.9353 40.0453 31.5984C41.7715 30.9245 44.2149 30.4257 47.2297 30.1471C53.2571 29.59 61.5362 29.9159 70.8534 31.4532C80.1724 32.9907 88.9169 35.3087 95.2457 37.7408C98.4113 38.9573 100.965 40.1995 102.683 41.3827C103.543 41.9746 104.185 42.5466 104.592 43.0869C104.984 43.6087 105.146 44.0856 105.091 44.5164C100.82 48.9501 90.2853 54.1447 69.1061 49.2739C59.2795 47.014 51.8681 44.1156 46.6261 41.3088C41.4247 38.5237 38.3755 35.8376 37.2109 33.9674Z" fill="black"/>
<path fill-rule="evenodd" clip-rule="evenodd" d="M39.5602 65.9216L53.6675 44.4284L53.7982 44.5142L39.6909 66.0073L39.5602 65.9216ZM57.5636 72.0476L61.706 47.7017L61.8601 47.7279L57.7177 72.0738L57.5636 72.0476Z" fill="black"/>
<path fill-rule="evenodd" clip-rule="evenodd" d="M76.9066 75.9738L75.1871 50.5337L75.3431 50.5232L77.0625 75.9633L76.9066 75.9738Z" fill="black"/>
<path fill-rule="evenodd" clip-rule="evenodd" d="M100.167 75.771L87.1152 51.4642L87.2529 51.3903L100.305 75.6971L100.167 75.771Z" fill="black"/>
<path fill-rule="evenodd" clip-rule="evenodd" d="M126.488 67.3158L101.283 47.7766L101.378 47.653L126.584 67.1922L126.488 67.3158Z" fill="black"/>
<path fill-rule="evenodd" clip-rule="evenodd" d="M138.677 41.0705L106.946 36.0685L106.97 35.9141L138.702 40.9161L138.677 41.0705Z" fill="black"/>
<path fill-rule="evenodd" clip-rule="evenodd" d="M124.628 26.2605L99.2658 28.3707L99.2528 28.2149L124.615 26.1047L124.628 26.2605Z" fill="black"/>
<path fill-rule="evenodd" clip-rule="evenodd" d="M99.6559 16.1643L89.5737 23.2375L89.4839 23.1095L99.5661 16.0363L99.6559 16.1643Z" fill="black"/>
<path fill-rule="evenodd" clip-rule="evenodd" d="M85.3684 12.9067L79.2722 20.2535L79.1519 20.1536L85.2482 12.8069L85.3684 12.9067Z" fill="black"/>
<path d="M172.763 46.3809C173.127 46.3652 173.476 46.3495 173.817 46.3299C174.158 46.3103 174.483 46.2868 174.801 46.2594C175.115 46.2319 175.42 46.2006 175.714 46.1692C176.008 46.134 176.294 46.0947 176.565 46.0556C176.835 46.0164 177.098 45.9732 177.349 45.9223C177.615 45.8713 177.941 45.8086 178.254 45.742C178.568 45.6753 178.866 45.6048 179.148 45.5303C179.43 45.4558 179.701 45.3813 179.952 45.299C180.206 45.2206 180.446 45.1383 180.665 45.0521C180.888 44.9619 181.096 44.8757 181.288 44.7816C181.672 44.5934 181.998 44.3975 182.257 44.1858C182.39 44.0799 182.503 43.9702 182.605 43.8565C182.707 43.7468 182.79 43.6292 182.856 43.5116C182.923 43.39 182.978 43.2685 183.009 43.1431C183.052 43.0137 183.068 42.8844 183.072 42.755C183.076 42.6022 183.056 42.461 183.017 42.3278C182.974 42.1945 182.911 42.0651 182.825 41.9515C182.739 41.8339 182.637 41.7241 182.511 41.6222C182.394 41.5203 182.249 41.4262 182.096 41.34C181.782 41.1675 181.41 41.0185 180.994 40.897C180.575 40.7716 180.116 40.6736 179.634 40.5913C179.156 40.509 178.65 40.4423 178.141 40.3874C177.635 40.3365 177.121 40.2934 176.624 40.262C176.13 40.2267 175.652 40.2032 175.209 40.1797C174.77 40.1522 174.358 40.1327 174.056 40.1091C174.056 40.1091 173.774 40.0778 173.347 40.0307C173.131 40.0033 172.88 39.9759 172.61 39.9445C172.339 39.9092 172.053 39.87 171.763 39.8387C171.473 39.7995 171.179 39.7563 170.901 39.7211C170.626 39.6819 170.368 39.6427 170.144 39.6113C169.689 39.5408 169.392 39.4937 169.392 39.4937C168.855 39.4075 168.388 39.3173 167.98 39.2154C167.565 39.1096 167.216 38.992 166.934 38.8587C166.64 38.7254 166.416 38.5804 166.256 38.4197C166.091 38.259 165.993 38.0826 165.958 37.8905C165.883 37.5691 166.013 37.33 166.271 37.1418C166.534 36.9576 166.922 36.8282 167.369 36.742C167.808 36.6518 168.302 36.6009 168.78 36.5734C169.254 36.546 169.709 36.5381 170.085 36.546C170.36 36.5499 170.642 36.5577 170.924 36.5773C171.206 36.593 171.489 36.6165 171.767 36.6518C172.045 36.6832 172.32 36.7263 172.606 36.7773C172.959 36.8321 173.3 36.8948 173.613 36.9732C173.931 37.0438 174.221 37.13 174.483 37.232C174.75 37.33 174.989 37.4475 175.189 37.5769C175.393 37.7063 175.561 37.8474 175.687 38.012C175.82 38.1688 175.91 38.3452 175.953 38.5451C175.953 38.5451 176.377 38.5177 177.008 38.4785C177.329 38.4589 177.694 38.4354 178.09 38.4079C178.486 38.3766 178.905 38.3491 179.328 38.3138C179.748 38.2825 180.171 38.2472 180.567 38.2158C180.959 38.1806 181.331 38.1492 181.649 38.1178C182.288 38.059 182.711 38.0159 182.711 38.0159C182.719 37.8513 182.707 37.6945 182.684 37.5377C182.656 37.377 182.613 37.2241 182.55 37.0752C182.496 36.9223 182.413 36.7733 182.319 36.6322C182.229 36.4872 182.115 36.35 181.986 36.2128C181.857 36.0756 181.712 35.9462 181.547 35.8208C181.386 35.6915 181.202 35.5699 181.002 35.4523C180.802 35.3347 180.591 35.2211 180.355 35.1152C180.116 35.0055 179.869 34.9036 179.595 34.8056C179.324 34.7076 179.034 34.6096 178.729 34.5233C178.423 34.4371 178.098 34.3509 177.753 34.2764C177.408 34.1941 177.047 34.1235 176.667 34.0569C176.287 33.9863 175.887 33.9236 175.463 33.8648C175.044 33.806 174.601 33.7511 174.146 33.7002C173.688 33.6531 173.202 33.6022 172.7 33.563C172.194 33.5159 171.677 33.4807 171.128 33.4454C170.697 33.414 170.281 33.3944 169.85 33.3748C169.533 33.3631 169.211 33.3552 168.886 33.3474C168.564 33.3435 168.239 33.3395 167.914 33.3395C167.588 33.3395 167.267 33.3435 166.946 33.3513C166.616 33.3591 166.295 33.3748 165.977 33.3905C165.656 33.4062 165.342 33.4258 165.033 33.4571C164.719 33.4807 164.409 33.512 164.108 33.5512C163.81 33.5865 163.52 33.6335 163.233 33.6845C162.951 33.7354 162.673 33.7903 162.414 33.8609C162.148 33.9236 161.897 33.9942 161.654 34.0765C161.419 34.1588 161.195 34.2529 160.987 34.3509C160.78 34.4489 160.588 34.5586 160.415 34.6801C160.239 34.7977 160.09 34.9271 159.956 35.0682C159.823 35.2015 159.709 35.3543 159.623 35.5151C159.537 35.6758 159.47 35.8443 159.427 36.0286C159.392 36.2089 159.376 36.4009 159.388 36.6009C159.404 36.8047 159.435 37.0164 159.502 37.2398C159.584 37.5299 159.713 37.8043 159.874 38.0708C160.039 38.3256 160.239 38.5765 160.466 38.8117C160.693 39.039 160.96 39.2624 161.246 39.4741C161.536 39.6779 161.854 39.8779 162.195 40.0621C162.524 40.2463 162.885 40.4188 163.265 40.5795C163.637 40.7324 164.029 40.8735 164.441 41.0029C164.845 41.1283 165.256 41.242 165.683 41.3478C166.103 41.4536 166.538 41.5477 166.973 41.634C167.247 41.6849 167.518 41.732 167.784 41.7712C168.047 41.8104 168.306 41.8417 168.557 41.8731C168.811 41.9044 169.058 41.9319 169.301 41.9593C169.544 41.9828 169.784 42.0063 170.019 42.0299C170.25 42.0495 170.481 42.0691 170.705 42.0887C170.928 42.1122 171.152 42.1318 171.367 42.1514C171.794 42.1906 172.214 42.2298 172.614 42.2729C172.841 42.2925 173.072 42.316 173.304 42.3434C173.539 42.367 173.77 42.3944 173.997 42.4258C174.229 42.4532 174.452 42.4846 174.664 42.5159C174.879 42.5512 175.083 42.5865 175.279 42.6296C175.679 42.708 176.102 42.7982 176.4 42.9079C176.698 43.0216 176.871 43.1588 176.871 43.3313C176.867 43.4998 176.741 43.6566 176.49 43.8016C176.263 43.9427 176.008 44.0643 175.663 44.1662C175.499 44.2171 175.307 44.2642 175.095 44.3073C174.887 44.3504 174.66 44.3896 174.409 44.421C174.166 44.4563 173.899 44.4837 173.617 44.5072C173.335 44.5307 173.033 44.5464 172.716 44.5582C172.316 44.5778 171.928 44.5856 171.551 44.5856C171.171 44.5895 170.811 44.5778 170.458 44.566C170.105 44.5464 169.76 44.5229 169.435 44.4915C169.101 44.4562 168.784 44.4092 168.482 44.3543C168.176 44.2955 167.886 44.2289 167.612 44.1466C167.341 44.0682 167.083 43.9741 166.848 43.8683C166.612 43.7624 166.393 43.6409 166.197 43.5116C166.001 43.3822 165.824 43.2333 165.676 43.0765C165.676 43.0765 165.303 43.0608 164.731 43.0333C164.445 43.0177 164.104 42.9981 163.735 42.9785C163.359 42.9549 162.947 42.9236 162.536 42.8961C162.112 42.8648 161.685 42.8295 161.277 42.7903C160.866 42.7511 160.478 42.7041 160.141 42.6649C159.459 42.5826 159 42.5238 159 42.5238C159.059 42.6806 159.137 42.8374 159.247 42.9902C159.353 43.1392 159.482 43.2881 159.627 43.4332C159.768 43.5743 159.933 43.7154 160.109 43.8487C160.29 43.9859 160.482 44.1191 160.693 44.2485C160.901 44.3739 161.125 44.4954 161.364 44.617C161.595 44.7306 161.842 44.8482 162.108 44.958C162.367 45.0677 162.638 45.1697 162.924 45.2716C163.206 45.3657 163.496 45.4597 163.806 45.5499C164.104 45.6361 164.417 45.7145 164.739 45.789C165.064 45.8635 165.393 45.9301 165.738 45.9889C166.071 46.0516 166.424 46.1026 166.781 46.1535C167.134 46.2006 167.498 46.2398 167.875 46.2751C168.247 46.3064 168.631 46.3339 169.023 46.3574C169.407 46.3809 169.803 46.3927 170.215 46.4044C170.618 46.4123 171.034 46.4123 171.461 46.4123C171.881 46.4044 172.316 46.3966 172.763 46.3809Z" fill="black"/>
<path d="M241.678 28.3808C241.678 28.3808 241.811 28.1691 242.015 27.8438C242.117 27.6792 242.238 27.4871 242.368 27.2754C242.505 27.0637 242.646 26.8325 242.791 26.6012C242.94 26.3621 243.089 26.123 243.23 25.8956C243.371 25.6604 243.508 25.4409 243.63 25.2489C243.865 24.8608 244.03 24.5942 244.03 24.5942C244.03 24.5942 243.324 24.7824 242.101 25.096C241.493 25.2449 240.753 25.4174 239.906 25.6016C239.059 25.782 238.099 25.974 237.048 26.1739C236.519 26.2719 235.966 26.3739 235.386 26.4718C234.81 26.5738 234.206 26.6718 233.583 26.7737C232.96 26.8717 232.309 26.9697 231.643 27.0677C230.969 27.1657 230.275 27.2597 229.565 27.3538C228.84 27.4479 228.099 27.5381 227.343 27.6282C226.575 27.7144 225.783 27.8007 224.983 27.883C224.164 27.9614 223.325 28.0398 222.47 28.1143C221.6 28.1848 220.714 28.2554 219.621 28.3965C218.229 28.6591 216.834 28.9178 215.466 29.1687C214.09 29.4117 212.734 29.6509 211.393 29.8821C210.056 30.1056 208.727 30.3251 207.414 30.5367C206.113 30.7406 204.823 30.9405 203.545 31.1326C202.275 31.3207 201.24 31.4697 200.441 31.5873C199.637 31.697 198.857 31.8029 198.093 31.9048C197.336 31.9988 196.595 32.0929 195.874 32.1792C195.153 32.2615 194.459 32.3399 193.789 32.4143C192.644 32.5594 191.735 32.6887 190.943 32.7907C190.147 32.8691 189.457 32.9279 188.889 32.9749C187.76 33.065 187.113 33.1121 187.113 33.1121C187.113 33.1121 187.035 33.3473 186.921 33.6922C186.866 33.8608 186.8 34.0568 186.729 34.2645C186.663 34.4684 186.588 34.6839 186.521 34.8995C186.451 35.1112 186.38 35.319 186.314 35.511C186.251 35.6992 186.196 35.8756 186.141 36.0285C186.039 36.3224 185.973 36.5184 185.973 36.5184C185.973 36.5184 186.937 36.444 188.376 36.3224C189.093 36.2597 189.936 36.1852 190.837 36.0833C191.296 36.0285 191.766 35.9657 192.244 35.903C192.723 35.8403 193.213 35.7697 193.875 35.6992C194.538 35.6208 195.2 35.5424 195.851 35.464C196.501 35.3856 197.14 35.3072 197.76 35.2249C198.99 35.0642 200.143 34.9113 201.131 34.7702C203.894 34.3664 205.909 34.0568 205.909 34.0568C205.909 34.0568 205.725 34.2528 205.411 34.5899C205.258 34.7545 205.078 34.9505 204.866 35.1778C204.659 35.4013 204.423 35.6561 204.18 35.9265C203.933 36.1931 203.675 36.4832 203.408 36.7811C203.267 36.9339 203.134 37.0868 203.001 37.2436C202.859 37.3965 202.722 37.5572 202.577 37.7179C202.444 37.8786 202.307 38.0393 202.166 38.2001C202.024 38.3608 201.887 38.5254 201.793 38.6822C201.703 38.839 201.621 38.9919 201.534 39.1487C201.46 39.3015 201.378 39.4583 201.299 39.6112C201.221 39.7641 201.146 39.917 201.076 40.0659C201.005 40.2149 200.931 40.3638 200.864 40.5128C200.794 40.6578 200.731 40.8028 200.664 40.9479C200.605 41.089 200.547 41.2301 200.484 41.3634C200.433 41.5006 200.374 41.6338 200.327 41.7671C200.268 41.8965 200.217 42.0219 200.178 42.1434C200.084 42.3865 200.006 42.6177 199.931 42.8294C199.861 43.0411 199.802 43.2332 199.751 43.4056C199.7 43.5742 199.661 43.7231 199.622 43.8446C199.555 44.0877 199.524 44.2249 199.524 44.2249C199.524 44.2249 200.28 44.1426 201.409 44.0132C201.974 43.9466 202.648 43.8682 203.671 43.7271C204.749 43.5742 205.893 43.4095 207.034 43.2449C208.186 43.0803 209.323 42.9117 210.389 42.7588C211.463 42.5981 212.463 42.4492 213.321 42.3198C215.046 42.0611 216.195 41.8886 216.195 41.8886C216.195 41.8886 216.265 41.7397 216.406 41.4692C216.477 41.3359 216.571 41.1713 216.677 40.9832C216.787 40.7911 216.912 40.5794 217.057 40.3442C217.202 40.109 217.375 39.8542 217.555 39.5798C217.649 39.4426 217.751 39.3015 217.857 39.1565C217.955 39.0115 218.068 38.8625 218.182 38.7096C218.3 38.5568 218.421 38.4 218.547 38.2393C218.668 38.0785 218.801 37.9178 218.939 37.7532C219.072 37.5846 219.209 37.42 219.35 37.2475C219.499 37.0751 219.648 36.9065 219.793 36.7301C219.946 36.5576 220.111 36.3812 220.264 36.2088C220.424 36.0324 220.581 35.856 220.75 35.6796C220.918 35.5032 221.075 35.3307 221.244 35.1504C221.412 34.9779 221.577 34.8055 221.745 34.633C221.914 34.4605 222.082 34.288 222.22 34.1273C222.306 33.9823 222.396 33.8373 222.486 33.6961C222.666 33.4139 222.831 33.1474 222.996 32.8965C223.152 32.6456 223.301 32.4143 223.439 32.2066C223.58 31.9988 223.693 31.8146 223.791 31.6617C223.995 31.3599 224.113 31.1835 224.113 31.1835C224.113 31.1835 225.348 31.0502 227.139 30.8464C228.021 30.7367 229.024 30.6073 230.087 30.4623C230.612 30.3917 231.149 30.3133 231.694 30.2349C232.231 30.1565 232.776 30.0742 233.317 29.988C233.85 29.9056 234.383 29.8194 234.908 29.7293C235.426 29.643 235.935 29.5568 236.425 29.4705C237.405 29.2902 238.318 29.106 239.098 28.9453C240.647 28.6121 241.678 28.3808 241.678 28.3808Z" fill="black"/>
<path d="M230.886 39.5917C230.886 39.5917 231.58 39.4741 232.607 39.2977C233.117 39.2114 233.709 39.1056 234.332 38.9958C234.959 38.8783 235.614 38.7567 236.272 38.6313C236.923 38.5019 237.57 38.3726 238.177 38.2511C238.781 38.1335 239.341 38.0198 239.816 37.9218C240.768 37.7297 241.403 37.6004 241.403 37.6004C241.403 37.6004 241.729 37.3769 242.226 37.0477C242.477 36.883 242.767 36.6871 243.085 36.4793C243.406 36.2676 243.747 36.0442 244.1 35.8168C244.445 35.5895 244.798 35.3582 245.131 35.1465C245.464 34.927 245.778 34.7232 246.052 34.5468C246.601 34.194 246.973 33.9549 246.973 33.9549C246.973 33.9549 247.291 33.8844 247.84 33.7589C248.392 33.6335 249.188 33.4493 250.156 33.2258C250.638 33.1121 251.164 32.9867 251.807 32.8926C252.547 32.8417 253.347 32.7907 254.209 32.7672C255.087 32.7437 256.016 32.7319 256.957 32.7202C257.929 32.7241 258.941 32.7398 259.979 32.7829C261.128 32.9083 262.445 33.1435 263.711 33.3591C264.86 33.5433 265.71 33.6688 266.53 33.7824C267.345 33.8922 268.133 33.9941 268.878 34.0803C269.622 34.1666 270.332 34.2411 270.986 34.3077C271.829 34.4018 272.229 34.4567 272.507 34.4959C272.786 34.535 272.942 34.5547 272.942 34.5547C272.942 34.5547 273.17 34.8016 273.507 35.1622C273.679 35.3425 273.871 35.5503 274.079 35.7698C274.287 35.9893 274.503 36.2206 274.718 36.4479C274.938 36.6753 275.153 36.9026 275.349 37.1104C275.549 37.3221 275.733 37.5141 275.894 37.6788C276.208 38.008 276.415 38.2236 276.415 38.2236C276.415 38.2236 276.721 38.2511 277.172 38.2903C277.395 38.3138 277.658 38.3373 277.936 38.3608C278.219 38.3843 278.513 38.4118 278.81 38.4392C279.104 38.4667 279.398 38.4941 279.673 38.5176C279.947 38.5451 280.21 38.5686 280.425 38.5882C280.868 38.6274 281.162 38.6548 281.162 38.6548C281.162 38.6548 280.935 38.4079 280.539 37.9767C280.343 37.7572 280.104 37.4945 279.83 37.1888C279.692 37.0359 279.547 36.8713 279.391 36.6988C279.238 36.5224 279.073 36.3382 278.901 36.1461C278.732 35.9501 278.552 35.7463 278.367 35.5346C278.179 35.319 277.987 35.0995 277.787 34.8682C277.584 34.6331 277.376 34.39 277.164 34.1431C276.949 33.8883 276.729 33.6296 276.502 33.363C276.274 33.0925 276.043 32.8103 275.804 32.5242C275.565 32.2341 275.322 31.9323 275.075 31.6304C274.82 31.3168 274.565 30.9993 274.307 30.674C274.044 30.3447 273.781 30.0037 273.515 29.6588C273.24 29.302 272.966 28.9453 272.688 28.5769C272.405 28.2006 272.123 27.8164 271.833 27.4284C271.543 27.0285 271.245 26.6169 270.955 26.2093C270.653 25.7859 270.351 25.3548 270.05 24.9157C269.74 24.4649 269.52 24.12 269.313 23.7868C269.117 23.4575 268.928 23.144 268.744 22.8343C268.556 22.5168 268.388 22.2189 268.219 21.9288C268.05 21.6309 267.894 21.3447 267.745 21.0743C267.596 20.7999 267.447 20.5333 267.31 20.2746C267.165 20.012 267.031 19.765 266.914 19.5377C266.671 19.0712 266.459 18.6636 266.29 18.3343C265.969 17.6797 265.785 17.2955 265.785 17.2955C265.785 17.2955 265.479 17.2955 265.032 17.2994C264.809 17.3034 264.55 17.3034 264.291 17.3308C264.052 17.3818 263.797 17.4288 263.543 17.4837C263.284 17.5386 263.029 17.5895 262.786 17.6366C262.547 17.6836 262.32 17.7306 262.124 17.7698C261.736 17.8443 261.473 17.8992 261.473 17.8992C261.473 17.8992 260.975 18.4793 260.05 19.4907C259.611 19.965 259.086 20.5177 258.317 21.2036C257.89 21.5603 257.447 21.9249 256.985 22.2973C256.53 22.6579 256.064 23.0303 255.589 23.4027C255.119 23.7633 254.641 24.1278 254.155 24.4963C253.68 24.853 253.198 25.2058 252.716 25.5586C252.234 25.9035 251.752 26.2485 251.262 26.5934C250.78 26.9266 250.293 27.2598 249.811 27.5891C249.337 27.9105 248.855 28.2319 248.381 28.5494C247.906 28.863 247.428 29.1727 246.958 29.4784C246.487 29.7842 246.017 30.086 245.55 30.3878C245.088 30.6818 244.625 30.9797 244.167 31.2737C243.712 31.5638 243.261 31.8499 242.818 32.1322C242.379 32.4105 241.936 32.6888 241.505 32.9632C241.078 33.2297 240.658 33.4963 240.239 33.7589C239.827 34.0137 239.428 34.2685 239.032 34.5155C238.636 34.7624 238.252 35.0015 237.879 35.2367C237.507 35.468 237.138 35.6953 236.786 35.9148C236.437 36.1344 236.1 36.346 235.767 36.5538C235.445 36.7576 235.128 36.9536 234.826 37.1418C234.524 37.3299 234.242 37.5063 233.967 37.6788C233.697 37.8473 233.442 38.0041 233.199 38.1531C232.725 38.451 232.305 38.7097 231.964 38.9214C231.278 39.3486 230.886 39.5917 230.886 39.5917ZM251.756 30.4231C251.756 30.4231 252.414 29.9998 253.433 29.3412C253.955 29.0002 254.578 28.5965 255.327 28.1927C255.719 27.9928 256.138 27.789 256.569 27.5812C257 27.3656 257.443 27.1461 257.886 26.9227C258.345 26.6993 258.811 26.468 259.282 26.2406C259.756 26.0094 260.238 25.7781 260.665 25.5507C261.277 25.1078 261.857 24.6766 262.367 24.2925C263.405 23.4811 264.115 22.9088 264.115 22.9088C264.115 22.9088 264.413 23.3595 264.856 24.022C265.075 24.3513 265.338 24.7315 265.616 25.1392C265.765 25.3469 265.914 25.5625 266.067 25.782C266.216 25.9937 266.377 26.2171 266.537 26.4406C266.706 26.6718 266.874 26.8992 267.098 27.1853C267.329 27.4676 267.557 27.7459 267.768 28.0085C268.188 28.5181 268.572 28.9806 268.889 29.3648C269.52 30.1095 269.924 30.5838 269.924 30.5838C269.924 30.5838 269.442 30.4819 268.458 30.3055C267.509 30.184 266.4 30.0272 265.201 29.8391C263.989 29.6392 262.912 29.6 261.653 29.5804C260.211 29.5882 258.823 29.6235 257.537 29.6627C256.295 29.7136 255.174 29.792 254.241 29.8704C252.692 30.1801 251.756 30.4231 251.756 30.4231Z" fill="black"/>
<path d="M294.376 39.8151C294.76 39.8542 295.137 39.8895 295.509 39.9209C295.881 39.9522 296.25 39.9836 296.61 40.011C297.343 40.0659 298.049 40.113 298.739 40.1482C299.433 40.1835 300.111 40.207 300.805 40.2227C301.502 40.2384 302.177 40.2306 302.823 40.2188C303.478 40.1992 304.109 40.1718 304.713 40.1286C305.324 40.0894 305.908 40.0306 306.492 39.964C307.092 39.8934 307.664 39.8111 308.201 39.7131C308.746 39.6112 309.154 39.5054 309.53 39.3839C309.907 39.2623 310.259 39.1212 310.581 38.9644C310.906 38.8037 311.204 38.6273 311.475 38.4274C311.749 38.2314 311.98 38.0119 312.184 37.7767C312.388 37.5376 312.56 37.275 312.705 36.9928C312.854 36.7105 312.964 36.4048 313.046 36.0794C313.133 35.7502 313.191 35.4013 313.223 35.0289C313.258 34.6526 313.266 34.2528 313.246 33.8334C313.238 33.6256 313.223 33.4061 313.203 33.1827C313.18 32.9592 313.152 32.7319 313.117 32.4928C313.086 32.2576 313.042 32.0224 312.995 31.7911C312.948 31.5638 312.894 31.3325 312.835 31.1051C312.713 30.6426 312.568 30.1879 312.4 29.7449C312.227 29.2902 312.023 28.8512 311.8 28.42C311.573 27.9771 311.318 27.5459 311.035 27.1265C310.749 26.6953 310.44 26.2798 310.122 25.876C309.809 25.4645 309.468 25.0686 309.099 24.6766C308.731 24.2846 308.343 23.9044 307.954 23.5359C307.555 23.1635 307.123 22.8107 306.645 22.4736C306.175 22.1287 305.677 21.7994 305.144 21.4819C304.493 21.1997 303.803 20.9409 303.113 20.6979C302.451 20.451 301.757 20.2197 301.04 20.0041C300.323 19.7768 299.586 19.5612 298.825 19.3612C298.088 19.1574 297.355 18.9653 296.599 18.7889C295.846 18.5969 295.07 18.4126 294.278 18.2402C293.6 18.1265 292.973 18.0599 292.342 18.0128C291.742 17.9501 291.13 17.9031 290.507 17.8639C290.507 17.8639 290.292 17.8482 289.919 17.8207C289.547 17.7933 289.022 17.7502 288.394 17.6914C288.085 17.66 287.748 17.6248 287.395 17.5895C287.046 17.5503 286.674 17.5072 286.293 17.468C285.913 17.4248 285.525 17.3817 285.125 17.3347C284.733 17.2994 284.333 17.2759 283.941 17.2524C283.546 17.2367 283.154 17.221 282.769 17.2053C282.385 17.1896 282.009 17.174 281.644 17.1583C281.284 17.1387 280.931 17.1152 280.602 17.0995C280.269 17.0721 279.959 17.0564 279.673 17.0329C279.097 16.9858 278.646 16.9976 278.34 17.0172C278.034 17.0407 277.862 17.0485 277.862 17.0485C277.862 17.0485 277.877 17.5189 277.991 18.4558C278.062 18.9418 278.152 19.5141 278.25 20.1531C278.352 20.7685 278.461 21.4427 278.583 22.1483C278.642 22.4932 278.705 22.8499 278.771 23.2066C278.834 23.5594 278.901 23.9161 278.967 24.2807C279.038 24.6335 279.108 24.9941 279.179 25.3508C279.249 25.7036 279.32 26.0603 279.394 26.4131C279.469 26.7619 279.543 27.1108 279.618 27.4557C279.692 27.7968 279.767 28.1378 279.841 28.4749C279.92 28.8042 279.998 29.1334 280.076 29.4588C280.151 29.7802 280.229 30.0977 280.308 30.4074C280.382 30.7171 280.461 31.0189 280.539 31.3168C280.614 31.6108 280.692 31.9009 280.77 32.187C280.845 32.4653 280.919 32.7397 280.994 33.0063C281.072 33.2689 281.143 33.5315 281.217 33.7824C281.292 34.0333 281.362 34.2763 281.433 34.5115C281.499 34.7428 281.57 34.9701 281.637 35.1896C281.707 35.4091 281.77 35.6169 281.836 35.8168C281.899 36.0167 281.958 36.2127 282.021 36.3969C282.138 36.7615 282.248 37.0947 282.35 37.3887C282.448 37.6787 282.534 37.9296 282.605 38.1413C282.75 38.5529 282.832 38.7881 282.832 38.7881C282.832 38.7881 282.977 38.7998 283.232 38.8194C283.487 38.839 283.851 38.8664 284.29 38.8978C284.51 38.9174 284.749 38.9331 285.004 38.9566C285.255 38.9762 285.529 38.9997 285.803 39.0193C286.086 39.0428 286.376 39.0664 286.674 39.0938C286.972 39.1173 287.277 39.1448 287.583 39.1722C287.893 39.1996 288.218 39.2271 288.543 39.2545C288.873 39.282 289.237 39.3172 289.664 39.3564C290.092 39.3995 290.507 39.4387 290.903 39.4779C291.299 39.5132 291.675 39.5524 292.024 39.5877C292.726 39.6543 293.306 39.7131 293.721 39.7523C294.137 39.7955 294.376 39.8151 294.376 39.8151ZM286.211 36.1069C286.211 36.1069 286.168 35.9501 286.09 35.6757C286.05 35.5385 286.007 35.3699 285.956 35.1779C285.901 34.9819 285.847 34.7584 285.784 34.5154C285.717 34.2685 285.654 33.998 285.584 33.7118C285.517 33.4178 285.447 33.1043 285.372 32.7789C285.302 32.4496 285.223 32.1008 285.149 31.7401C285.078 31.3756 285.004 30.9954 284.929 30.6112C284.855 30.2192 284.788 29.8194 284.718 29.4196C284.647 29.0119 284.58 28.6043 284.522 28.2044C284.459 27.7968 284.4 27.393 284.345 27.0089C284.29 26.6169 284.239 26.2367 284.196 25.8839C284.149 25.5272 284.11 25.1901 284.075 24.8922C284.039 24.5864 284.008 24.3199 283.985 24.0964C283.934 23.6339 283.91 23.3713 283.91 23.3713C283.91 23.3713 284.247 23.3791 284.765 23.3948C285.023 23.4065 285.325 23.4261 285.654 23.4536C285.984 23.481 286.333 23.5163 286.689 23.5477C287.042 23.5869 287.403 23.6221 287.736 23.6535C288.073 23.6848 288.387 23.7123 288.661 23.7397C289.21 23.7868 289.578 23.8181 289.578 23.8181C289.962 23.8495 290.331 23.8848 290.699 23.924C291.083 23.9671 291.511 24.0376 291.985 24.1435C292.459 24.2415 292.922 24.3434 293.361 24.4492C293.808 24.5511 294.227 24.657 294.639 24.7706C295.466 24.9823 296.222 25.2097 296.951 25.4723C297.688 25.7271 298.359 26.0132 298.962 26.3386C299.566 26.6561 300.103 27.0089 300.569 27.4048C301.04 27.7929 301.448 28.224 301.812 28.6944C301.992 28.9296 302.157 29.1726 302.302 29.4274C302.447 29.6783 302.58 29.9409 302.698 30.2114C302.812 30.4819 302.914 30.7602 303.004 31.0503C303.086 31.3364 303.157 31.6343 303.211 31.944C303.278 32.2576 303.313 32.5516 303.333 32.8299C303.349 33.1043 303.349 33.363 303.321 33.606C303.298 33.8451 303.255 34.0685 303.184 34.2763C303.121 34.484 303.031 34.6761 302.925 34.8525C302.714 35.2053 302.416 35.5071 302.039 35.758C301.671 36.0049 301.224 36.2049 300.703 36.3656C300.189 36.5185 299.629 36.6321 299.013 36.7105C298.406 36.785 297.731 36.8242 297.006 36.8399C296.646 36.8438 296.269 36.8438 295.885 36.836C295.497 36.8281 295.097 36.8164 294.686 36.7968C294.286 36.7772 293.886 36.7536 293.475 36.7223C293.071 36.6948 292.651 36.6596 292.22 36.6204C292.22 36.6204 291.769 36.5773 291.099 36.5145C290.766 36.4832 290.378 36.4479 289.962 36.4087C289.551 36.3695 289.108 36.3264 288.665 36.2872C288.296 36.2558 287.987 36.2323 287.708 36.2127C287.426 36.1931 287.167 36.1735 286.944 36.1578C286.501 36.1265 286.211 36.1069 286.211 36.1069Z" fill="black"/>
<path d="M319.828 42.6923C319.828 42.6923 320.69 42.7864 321.999 42.9275C322.658 42.998 323.426 43.0843 324.257 43.1744C325.092 43.2646 325.986 43.3626 326.887 43.4645C327.801 43.5625 328.694 43.6605 329.51 43.7546C330.337 43.8526 331.109 43.9427 331.783 44.0172C333.132 44.1622 334.049 44.2563 334.049 44.2563C334.049 44.2563 333.967 43.978 333.822 43.4841C333.747 43.2372 333.669 42.9314 333.586 42.5865C333.492 42.2376 333.398 41.8417 333.289 41.4027C333.249 41.1871 333.191 40.9558 333.14 40.7206C333.093 40.4815 333.038 40.2306 332.995 39.9797C332.944 39.721 332.897 39.4545 332.85 39.184C332.799 38.9096 332.748 38.6274 332.693 38.3413C332.638 38.0512 332.583 37.7533 332.532 37.4514C332.473 37.1496 332.426 36.8399 332.375 36.5264C332.324 36.2128 332.277 35.8874 332.23 35.566C332.183 35.2367 332.14 34.9035 332.093 34.5703C332.054 34.2332 332.015 33.8883 331.975 33.5433C331.932 33.1945 331.897 32.8417 331.858 32.4928C331.807 32.1361 331.756 31.7794 331.705 31.4188C331.654 31.0621 331.576 30.6975 331.493 30.3447C331.403 29.9802 331.321 29.6196 331.235 29.2629C331.152 28.8983 331.062 28.5338 330.964 28.181C330.858 27.8204 330.76 27.4636 330.662 27.1109C330.56 26.7581 330.462 26.4092 330.368 26.0682C330.176 25.3744 329.992 24.7158 329.831 24.12C329.659 23.5046 329.506 22.948 329.384 22.4854C329.122 21.5212 328.973 20.9528 328.973 20.9528C328.973 20.9528 328.036 20.8822 326.648 20.7685C325.951 20.7058 325.147 20.6313 324.289 20.5412C323.426 20.4393 322.646 20.357 322.046 20.3021C321.443 20.2394 320.851 20.1806 320.294 20.1178C319.73 20.0551 319.201 20.0002 318.746 19.9493C317.84 19.8631 317.221 19.8239 317.221 19.8239C317.221 19.8239 317.221 20.3766 317.233 21.3134C317.237 21.7681 317.252 22.3051 317.245 22.9127C317.252 23.5085 317.264 24.1553 317.284 24.8413C317.292 25.1745 317.311 25.5233 317.319 25.8683C317.335 26.2132 317.343 26.5699 317.35 26.9227C317.362 27.2755 317.366 27.6322 317.378 27.9889C317.397 28.3378 317.409 28.6906 317.429 29.0434C317.441 29.3922 317.46 29.7411 317.488 30.09C317.507 30.4349 317.531 30.7759 317.562 31.1209C317.586 31.458 317.613 31.7912 317.652 32.1244C317.68 32.4497 317.715 32.779 317.75 33.1043C317.786 33.4258 317.825 33.7472 317.864 34.0608C317.907 34.3783 317.95 34.6879 317.989 34.9976C318.036 35.3073 318.08 35.6091 318.13 35.9109C318.178 36.2088 318.232 36.5028 318.279 36.789C318.326 37.0751 318.377 37.3574 318.428 37.6318C318.483 37.9022 318.534 38.1688 318.589 38.4236C318.64 38.6784 318.695 38.9253 318.742 39.1644C318.797 39.4035 318.848 39.6309 318.899 39.8504C319.001 40.2816 319.099 40.6775 319.208 41.0264C319.33 41.3713 319.444 41.6731 319.534 41.9201C319.718 42.4101 319.828 42.6923 319.828 42.6923Z" fill="black"/>
<path d="M395.881 48.6661C396.688 48.6465 397.449 48.623 398.193 48.5956C398.942 48.5681 399.671 48.5407 400.373 48.5093C401.788 48.4466 403.14 48.3722 404.657 48.3251C406.354 48.3055 407.942 48.2702 409.439 48.2232C410.913 48.1762 412.293 48.1174 413.598 48.0507C414.888 47.9802 416.095 47.9018 417.244 47.8116C418.381 47.7215 419.455 47.6235 420.462 47.5176C421.462 47.4118 422.406 47.2903 423.292 47.1648C423.955 46.9884 424.515 46.7964 425.037 46.5965C425.562 46.3966 426.044 46.1966 426.495 45.985C426.949 45.7772 427.369 45.5616 427.753 45.3421C428.141 45.1187 428.498 44.8952 428.827 44.6601C429.148 44.4288 429.45 44.1858 429.721 43.9388C429.995 43.6919 430.234 43.4371 430.454 43.1783C430.673 42.9118 430.869 42.6413 431.038 42.3591C431.206 42.0808 431.355 41.7868 431.477 41.4889C431.602 41.1831 431.704 40.8696 431.786 40.5442C431.786 40.5442 431.83 40.3639 431.916 40.0346C431.951 39.87 431.998 39.6662 432.045 39.4349C432.1 39.1958 432.163 38.9253 432.222 38.6274C432.28 38.3216 432.339 37.9845 432.41 37.6239C432.472 37.2554 432.543 36.8556 432.61 36.4362C432.676 36.0089 432.747 35.5503 432.81 35.076C432.872 34.586 432.939 34.0764 433.002 33.5512C433.064 33.0102 433.123 32.4536 433.186 31.8813C433.241 31.3012 433.292 30.7054 433.347 30.1096C433.398 29.4902 433.437 28.8866 433.394 28.3848C433.343 27.8674 433.28 27.3774 433.225 26.911C433.143 26.4523 433.068 26.029 432.99 25.6527C432.9 25.2764 432.817 24.9393 432.751 24.657C432.606 24.0926 432.516 23.7594 432.516 23.7594C432.516 23.7594 431.869 23.5438 430.846 23.1871C430.305 23.0146 429.654 22.8147 428.917 22.6265C428.172 22.4266 427.345 22.2267 426.467 22.0582C425.519 21.9798 424.55 21.8896 423.476 21.7681C422.057 21.5878 420.713 21.4075 419.56 21.2389C417.228 20.8665 415.695 20.6235 415.695 20.6235C415.695 20.6235 415.758 21.09 415.852 21.8739C415.962 22.6461 416.123 23.7006 416.307 24.8883C416.385 25.4606 416.483 26.0564 416.57 26.6679C416.648 27.2637 416.75 27.8596 416.836 28.4671C416.915 29.059 416.997 29.647 417.075 30.2271C417.142 30.7877 417.22 31.3482 417.275 31.8852C417.338 32.4105 417.397 32.924 417.444 33.414C417.487 33.8922 417.53 34.3548 417.569 34.7899C417.593 35.2171 417.624 35.6169 417.644 35.9933C417.667 36.3578 417.679 36.6988 417.691 37.0085C417.699 37.6122 417.706 38.0982 417.699 38.4314C417.695 38.7607 417.691 38.9449 417.691 38.9449C417.683 39.2232 417.667 39.4937 417.644 39.7524C417.604 40.0111 417.561 40.2541 417.506 40.4932C417.381 40.9597 417.193 41.387 416.926 41.775C416.636 42.1592 416.268 42.5081 415.766 42.8216C415.268 43.1313 414.649 43.4057 413.869 43.6448C413.089 43.8839 412.148 44.0878 411.019 44.2524C409.882 44.4131 408.546 44.5385 406.954 44.6209C406.151 44.664 405.288 44.6953 404.367 44.7188C403.65 44.7816 402.897 44.8404 402.101 44.8874C401.29 44.9384 400.435 44.9776 399.526 45.005C398.613 45.0324 397.5 45.056 396.096 45.0756C394.712 45.0952 393.415 45.0991 392.188 45.0834C390.961 45.0677 389.809 45.0364 388.723 44.9932C387.641 44.9423 386.626 44.8835 385.673 44.8051C384.717 44.7306 383.815 44.6405 382.969 44.5385C381.138 44.3308 379.006 44.0995 377.175 43.8212C374.502 43.4684 372.683 43.1078 371.734 42.7628C370.797 42.4101 370.053 42.0338 369.453 41.6339C368.865 41.2302 368.414 40.7951 368.061 40.3365C367.709 39.8739 367.458 39.3761 367.262 38.8469C367.168 38.5804 367.085 38.306 367.015 38.0237C366.936 37.7337 366.862 37.4397 366.76 37.1379C366.76 37.1379 366.689 36.9379 366.568 36.5852C366.45 36.2284 366.27 35.7149 366.054 35.0838C365.953 34.7663 365.839 34.4136 365.706 34.0372C365.588 33.657 365.459 33.2454 365.325 32.8182C365.184 32.3831 365.043 31.9244 364.89 31.4501C364.749 30.968 364.608 30.4663 364.447 29.9606C364.306 29.4353 364.149 28.9101 363.993 28.3731C363.832 27.8243 363.695 27.2716 363.546 26.7228C363.393 26.1583 363.24 25.6056 363.103 25.0608C362.958 24.512 362.824 23.9711 362.707 23.4654C362.448 22.411 362.268 21.5016 362.366 20.8626C362.468 20.208 362.53 19.8239 362.53 19.8239C362.53 19.8239 360.982 20.0277 358.74 20.3021C357.654 20.4158 356.416 20.5451 355.114 20.6745C353.864 20.7842 352.566 20.8901 351.288 20.9802C350.038 21.0625 348.815 21.1331 347.69 21.184C346.592 21.235 345.585 21.2703 344.738 21.2977C343.072 21.333 341.983 21.3487 341.983 21.3487C341.983 21.3487 342.01 21.7171 342.081 22.3482C342.108 22.6501 342.143 23.0225 342.19 23.438C342.23 23.8456 342.277 24.2925 342.324 24.7746C342.375 25.2411 342.433 25.7389 342.488 26.2524C342.543 26.7542 342.606 27.2755 342.665 27.8008C342.723 28.3143 342.782 28.8317 342.849 29.3452C342.908 29.8508 342.978 30.3526 343.037 30.8465C343.108 31.3286 343.17 31.8069 343.241 32.2655C343.3 32.7163 343.362 33.1553 343.429 33.5708C343.492 33.9863 343.554 34.3783 343.609 34.7467C343.676 35.1113 343.731 35.4523 343.786 35.762C343.837 36.0677 343.884 36.35 343.931 36.5969C343.978 36.8439 344.013 37.0555 344.044 37.228C344.111 37.5769 344.15 37.7689 344.15 37.7689C344.217 38.11 344.303 38.4392 344.413 38.7646C344.531 39.086 344.668 39.3996 344.836 39.7014C345.005 40.0072 345.201 40.309 345.428 40.5991C345.656 40.8892 345.91 41.1753 346.31 41.4693C346.804 41.775 347.353 42.0769 347.949 42.3709C348.544 42.6648 349.203 42.9549 349.912 43.245C350.634 43.5311 351.414 43.8134 352.272 44.0956C353.131 44.3739 354.064 44.6483 355.075 44.9227C356.106 45.1971 357.223 45.4636 358.454 45.7341C359.696 46.0006 361.064 46.2672 362.55 46.5298C363.84 46.7689 365.031 46.9884 366.333 47.1962C367.642 47.404 369.069 47.6078 370.739 47.8155C373.663 48.0821 376.756 48.329 379.021 48.4466C380.934 48.5407 382.6 48.6113 384.341 48.6622C386.073 48.7014 387.9 48.7289 389.809 48.7328C390.765 48.7328 391.749 48.7289 392.76 48.7171C393.78 48.7053 394.818 48.6897 395.881 48.6661Z" fill="black"/>
<path d="M437.427 46.083C437.427 46.083 438.109 45.9654 439.136 45.785C439.662 45.6949 440.265 45.5851 440.92 45.4636C441.578 45.346 442.284 45.2088 442.997 45.0716C443.715 44.9344 444.428 44.7933 445.04 44.6875C445.494 44.6561 445.843 44.66 446.059 44.6836C446.463 44.7502 446.729 44.7933 446.729 44.7933C446.729 44.7933 446.733 44.6875 446.741 44.4954C446.745 44.3073 446.753 44.0368 446.756 43.7114C446.756 43.5468 446.756 43.3665 446.756 43.1783C446.756 42.9902 446.753 42.7864 446.745 42.5786C446.741 42.3708 446.733 42.1513 446.725 41.9279C446.713 41.7006 446.702 41.4732 446.69 41.238C446.67 41.0067 446.655 40.7676 446.639 40.5364C446.615 40.3012 446.596 40.066 446.576 39.8386C446.553 39.6073 446.529 39.3839 446.506 39.1683C446.478 38.9488 446.455 38.745 446.431 38.5529C446.38 38.1609 446.337 37.8317 446.302 37.5965C446.267 37.3573 446.247 37.2202 446.247 37.2202C446.247 37.2202 446.353 37.3809 446.533 37.6553C446.623 37.7925 446.733 37.9571 446.858 38.1413C446.98 38.3216 447.113 38.5294 447.262 38.7528C447.407 38.9684 447.56 39.2036 447.721 39.4466C447.882 39.6897 448.046 39.9405 448.215 40.1953C448.379 40.4501 448.544 40.7088 448.713 40.9715C448.881 41.2262 449.042 41.485 449.206 41.7398C449.367 41.9906 449.524 42.2415 449.677 42.4845C449.826 42.7236 449.971 42.9588 450.112 43.1862C450.249 43.4096 450.378 43.6213 450.5 43.8212C450.618 44.0211 450.731 44.2053 450.833 44.3739C450.935 44.5424 451.025 44.6953 451.108 44.8286C451.19 44.9619 451.256 45.0795 451.315 45.1735C451.425 45.3617 451.488 45.4714 451.488 45.4714C451.488 45.4714 451.723 45.4989 452.076 45.5342C452.248 45.5538 452.452 45.5734 452.668 45.5969C452.883 45.6204 453.115 45.6439 453.346 45.6674C453.573 45.691 453.797 45.7184 454.012 45.738C454.224 45.7615 454.424 45.7811 454.588 45.7968C454.929 45.8321 455.153 45.8556 455.153 45.8556C455.153 45.8556 455.231 45.7654 455.365 45.6047C455.435 45.5263 455.517 45.4283 455.611 45.3147C455.706 45.201 455.811 45.0755 455.925 44.9384C456.043 44.8012 456.164 44.6522 456.297 44.4915C456.427 44.3308 456.564 44.1622 456.709 43.9858C456.85 43.8094 456.999 43.6291 457.144 43.441C457.293 43.2489 457.446 43.0568 457.595 42.8647C457.744 42.6648 457.893 42.4688 458.042 42.2689C458.191 42.0729 458.332 41.873 458.473 41.6809C458.61 41.485 458.747 41.2929 458.873 41.1087C459.002 40.9244 459.12 40.748 459.229 40.5795C459.339 40.4109 459.437 40.258 459.523 40.1169C459.614 39.9797 459.688 39.8543 459.751 39.7524C459.872 39.5446 459.943 39.4231 459.943 39.4231C459.943 39.4231 459.947 39.5485 459.951 39.7641C459.955 39.9797 459.959 40.2816 459.955 40.6343C459.955 40.8107 459.951 40.9989 459.943 41.191C459.939 41.387 459.927 41.5908 459.915 41.7985C459.904 42.0063 459.888 42.218 459.876 42.4296C459.857 42.6374 459.841 42.8491 459.825 43.0607C459.802 43.2724 459.782 43.4762 459.763 43.6801C459.739 43.88 459.719 44.076 459.696 44.2641C459.672 44.4523 459.653 44.6326 459.633 44.8051C459.61 44.9775 459.586 45.1343 459.567 45.2833C459.527 45.5812 459.496 45.8242 459.473 45.9967C459.445 46.1692 459.433 46.2672 459.433 46.2672C459.433 46.2672 459.657 46.2868 459.998 46.3181C460.166 46.3338 460.366 46.3495 460.578 46.3691C460.794 46.3887 461.021 46.4083 461.252 46.4279C461.479 46.4475 461.711 46.4671 461.926 46.4867C462.146 46.5063 462.35 46.522 462.526 46.5376C462.879 46.5651 463.114 46.5847 463.114 46.5847C463.114 46.5847 463.149 46.4083 463.2 46.0947C463.228 45.9379 463.259 45.7498 463.298 45.5263C463.337 45.3068 463.381 45.0599 463.428 44.7855C463.451 44.6522 463.479 44.5072 463.502 44.3582C463.53 44.2093 463.553 44.0525 463.584 43.8917C463.608 43.731 463.639 43.5664 463.667 43.3939C463.694 43.2215 463.726 43.0451 463.753 42.8608C463.78 42.6766 463.812 42.4884 463.839 42.2964C463.867 42.1043 463.894 41.9044 463.918 41.7045C463.941 41.5006 463.965 41.2929 463.98 41.0812C463.992 40.8695 463.996 40.654 464 40.4305C464 40.211 463.996 39.9837 463.988 39.7602C463.984 39.5329 463.976 39.3016 463.969 39.0703C463.961 38.8391 463.957 38.6039 463.945 38.3687C463.937 38.1335 463.929 37.8983 463.918 37.667C463.914 37.4279 463.906 37.1966 463.894 36.9654C463.89 36.7263 463.882 36.495 463.878 36.2676C463.871 36.0364 463.863 35.809 463.859 35.5895C463.855 35.3621 463.851 35.1426 463.847 34.9349C463.839 34.5037 463.835 34.1 463.831 33.7354C463.831 33.3669 463.827 33.0377 463.831 32.7633C463.835 32.2067 463.835 31.8774 463.835 31.8774C463.835 31.8774 463.533 31.9009 463.079 31.9323C462.855 31.948 462.593 31.9597 462.314 31.9715C462.036 31.9872 461.742 31.995 461.444 32.0067C461.154 32.0107 460.86 32.0146 460.586 32.0146C460.311 32.0185 460.06 32.0185 459.841 32.0146C459.406 32.0068 459.12 31.9989 459.12 31.9989C459.12 31.9989 459.026 32.2341 458.873 32.6378C458.794 32.8378 458.704 33.073 458.594 33.3434C458.489 33.6061 458.371 33.9 458.242 34.2136C458.112 34.5194 457.979 34.8486 457.834 35.1858C457.76 35.3543 457.685 35.5229 457.611 35.6953C457.536 35.8639 457.458 36.0403 457.379 36.2128C457.301 36.3813 457.223 36.5538 457.14 36.7223C457.062 36.8948 456.976 37.0673 456.893 37.2358C456.811 37.4044 456.729 37.5729 456.642 37.7415C456.56 37.9061 456.478 38.0668 456.388 38.2315C456.305 38.3883 456.219 38.549 456.133 38.7058C456.047 38.8626 455.96 39.0154 455.878 39.1644C455.788 39.3173 455.706 39.4623 455.619 39.6073C455.533 39.7485 455.447 39.8896 455.365 40.0268C455.282 40.16 455.2 40.2933 455.118 40.4188C455.035 40.5481 454.957 40.6735 454.878 40.7951C454.722 41.0303 454.573 41.2537 454.436 41.4575C454.298 41.6574 454.169 41.8417 454.055 42.0024C453.942 42.1631 453.84 42.3003 453.757 42.414C453.589 42.6413 453.495 42.7707 453.495 42.7707C453.495 42.7707 453.401 42.6178 453.24 42.3512C453.158 42.2141 453.056 42.0494 452.938 41.8613C452.817 41.6692 452.679 41.4497 452.53 41.2106C452.378 40.9636 452.205 40.701 452.025 40.4148C451.935 40.2698 451.841 40.1209 451.743 39.9641C451.645 39.8112 451.543 39.6505 451.437 39.4858C451.331 39.3134 451.225 39.1409 451.111 38.9645C451.002 38.7842 450.888 38.596 450.77 38.4118C450.653 38.2236 450.531 38.0276 450.41 37.8317C450.288 37.6357 450.167 37.4357 450.037 37.2358C449.912 37.0281 449.783 36.8203 449.653 36.6126C449.524 36.4009 449.391 36.1892 449.257 35.9736C449.124 35.758 448.995 35.5385 448.858 35.3229C448.72 35.1034 448.587 34.8839 448.454 34.6644C448.317 34.441 448.179 34.2215 448.046 34.002C447.913 33.7785 447.78 33.559 447.646 33.3434C447.38 32.9005 447.117 32.4693 446.87 32.0655C446.623 31.65 446.388 31.2581 446.176 30.9053C445.961 30.5446 445.773 30.2232 445.612 29.9527C445.287 29.404 445.094 29.0786 445.094 29.0786C445.094 29.0786 444.73 28.9414 444.177 28.7219C443.895 28.6122 443.562 28.4789 443.205 28.3299C442.837 28.181 442.441 28.0124 442.045 27.8399C441.633 27.6635 441.218 27.4832 440.826 27.3068C440.422 27.1265 440.042 26.9501 439.713 26.7973C439.038 26.4837 438.58 26.2642 438.58 26.2642C438.58 26.2642 438.717 26.7032 438.948 27.4362C439.062 27.7968 439.191 28.2202 439.336 28.6984C439.477 29.1688 439.63 29.6784 439.787 30.2232C439.865 30.4937 439.944 30.7642 440.022 31.0464C440.105 31.3247 440.179 31.603 440.257 31.8892C440.336 32.1675 440.41 32.4536 440.485 32.7398C440.559 33.022 440.634 33.3042 440.704 33.5904C440.747 33.8844 440.79 34.1823 440.826 34.4802C440.861 34.7702 440.892 35.0642 440.92 35.3582C440.943 35.6483 440.967 35.9344 440.99 36.2167C441.006 36.4989 441.026 36.7772 441.03 37.0555C441.026 37.3378 440.998 37.6278 440.963 37.9179C440.904 38.2236 440.802 38.5451 440.689 38.8665C440.575 39.184 440.469 39.4937 440.355 39.7955C440.246 40.0934 440.132 40.3835 440.026 40.6657C439.912 40.944 439.811 41.2145 439.697 41.4732C439.595 41.7319 439.485 41.9828 439.375 42.2258C439.273 42.461 439.172 42.6923 439.074 42.9118C438.968 43.1313 438.874 43.339 438.772 43.539C438.58 43.9349 438.403 44.2916 438.235 44.6052C438.078 44.9148 437.929 45.1853 437.815 45.4009C437.568 45.836 437.427 46.083 437.427 46.083Z" fill="black"/>
</svg>
